# xmcd
#
# Track frame offsets: 
#        150
#        17381
#        39332
#        53664
#        79261
#        100456
#        116606
#        131822
#        156312
#        169698
#        189186
#        207107
#        223248
#        242451
#        261777
#        275164
#        288380
#
# Disc length: 4023 seconds
#
# Revision: 1
# Processed by: cddbd v1.5.2PL0 Copyright (c) Steve Scherf et al.
# Submitted via: ExactAudioCopy v1.0b1
#
DISCID=f10fb511
DTITLE=Lonstar - The best. Nazywają mnie buntownikiem
DYEAR=2004
DGENRE=Country
TTITLE0=Radio
TTITLE1=Cały świat, ona i ja
TTITLE2=Różne kolory (Ale los ten sam)
TTITLE3=Tym, co nie zasnęli
TTITLE4=Nazywają mnie buntownikiem
TTITLE5=Legenda europejskiego cowboya
TTITLE6=My wygramy
TTITLE7=Anioły na wygnaniu
TTITLE8=Dla kierowców ze stu tysięcy szos
TTITLE9=Dlatego kocham ciebie
TTITLE10=Jadę na południe
TTITLE11=Livin' in a slow lane
TTITLE12=Good ole country music
TTITLE13=Red River Valley
TTITLE14=Battle of New Orleans
TTITLE15=Muleskinner blues
TTITLE16=United states of mind
EXTD=YEAR: 2000
EXTT0=
EXTT1=
EXTT2=
EXTT3=
EXTT4=
EXTT5=
EXTT6=
EXTT7=
EXTT8=
EXTT9=
EXTT10=
EXTT11=
EXTT12=
EXTT13=
EXTT14=
EXTT15=
EXTT16=
PLAYORDER=
